<svg version="1.1" id="Layer_1" xmlns="http://www.w3.org/2000/svg" x="0" y="0" viewBox="0 0 41 41" xml:space="preserve"><style>.st3{fill:#3b4899}.st15{fill:#eb5c65}.st20{fill:#2b317b}</style><g id="Ul0sO6_1_"><path d="M21 0h20v21c-.4-.3-.8-.7-1.2-1-.6-1-1.1-2-1.7-3L35 13.9c-4.4-3.7-7.5-3.9-12.1-1-.7.7-1.4 1.3-2.1 2-2.1.8-4.2 1.5-6.2 2.3 0-2.6-.1-5.1-.1-7.7 2.5-.8 3-2.4 1.6-4.5 0-.7 0-1.4-.1-2.1V3c.3-.3.7-.5 1-.8 1.3-.8 2.7-1.5 4-2.2z" fill="#ea498b"/><path d="M20 41h-8V30.2c1.7-.7 3.4-1.4 5-2.2.4-.3.8-.7 1.1-1l.9-1.2c2.3-1.7 4.6-3.3 6.9-5 .3.1.6.2 1 .3 1 1.7 2 3.3 3 5 .1 1 .1 1.9.2 2.9-.4 1.7-.9 3.3-1.3 5l-1.9 1.9L20 41z" fill="#494b9a"/><path d="M21 0c-1.3.7-2.7 1.4-4 2.2-.3.3-.7.5-1 .8v-.1c-.6.5-1.2 1-1.7 1.5-.3.1-.4.2-.3.5-3.9 2.3-1.1 6.2-2.2 9.1-1.2-1.2-2.4-2.4-4.1-4H0V0h21z" fill="#404e9d"/><path class="st3" d="M0 10h7.7c1.6 1.6 2.9 2.8 4.1 4 .2 1.4.5 2.8.7 4.2-3.8.6-7.6 1.2-11.5 1.8l-1-1v-9z"/><path d="M0 19l1 1c.7 1.3 1.3 2.7 2 4 .9 1 1.8 2.1 2.7 3.1l.3.9c-.3 4.3-.7 8.7-1 13H0V19z" fill="#505ba5"/><path d="M5 41c.3-4.3.7-8.7 1-13 .7.3 1.4.6 2 .9 1.3.4 2.6.9 4 1.3V41H5z" fill="#4c53a0"/><path d="M28.9 34c.4-1.7.9-3.3 1.3-5H41v6c-4-.3-8.1-.7-12.1-1z" fill="#f28c2e"/><path d="M41 29H30.2c-.1-1-.1-1.9-.2-2.9 1.5-1 2.9-2.5 4.6-2.9 2-.5 4.3-.1 6.5-.2-.1 2-.1 4-.1 6z" fill="#f49923"/><path d="M20 41c2.3-1.7 4.6-3.4 7-5.1 1.3.7 2.5 1.9 3.8 2 3.4.3 6.8.1 10.2.1v3H20z" fill="#f07e40"/><path d="M41 23c-2.2 0-4.4-.4-6.5.2-1.7.4-3.1 1.9-4.6 2.9-1-1.7-2-3.3-3-5 4.3-.4 8.6-.7 12.9-1.1.4.3.8.7 1.2 1v2z" fill="#f7a820"/><path d="M41 38c-3.4 0-6.8.2-10.2-.1-1.3-.1-2.5-1.3-3.8-2l1.9-1.9c4 .3 8.1.7 12.1 1v3z" fill="#f08337"/><path d="M26 20.8c-.3-.6-.7-1.1-1-1.7 1.3-.7 2.5-1.9 3.9-2 3.1-.3 6.2-.1 9.3-.1.6 1 1.1 2 1.7 3-4.3.4-8.6.7-12.9 1.1-.4 0-.7-.1-1-.3z" fill="#fab419"/><path d="M23 12.9c4.6-2.9 7.7-2.7 12.1 1-4.2 1.5-8.4 2.5-12.1-1z" fill="#fec70d"/><path d="M23 12.9c3.8 3.4 7.9 2.5 12.1 1l3.1 3.1c-3.1 0-6.2-.2-9.3.1-1.3.1-2.6 1.3-3.9 2-1.4-1.4-2.7-2.8-4.1-4.2.7-.7 1.4-1.3 2.1-2z" fill="#fcbe16"/><path d="M14.6 17.2c.1.6.2 1.1.3 1.7-.3 0-.7.1-1 .1-.3 0-.6-.1-.9-.2 0-.3-.1-.5-.4-.6-.2-1.4-.5-2.8-.7-4.2 1.1-3-1.7-6.8 2.2-9.1.2 1.6.3 3.1.5 4.7-.1 2.5 0 5 0 7.6z" fill="#ed6954"/><path class="st15" d="M14.5 9.5c-.2-1.5-.4-3.1-.5-4.6 0-.2 0-.4.2-.5L16 5c1.4 2.2.9 3.7-1.5 4.5z"/><path d="M16 5l-1.8-.6c.6-.5 1.2-1 1.7-1.5.1.7.1 1.4.1 2.1z" fill="#ea546e"/><path d="M15.9 3c.3-.3.7-.5 1-.8-.3.2-.6.5-1 .8z" fill="#ea4f7a"/><path d="M17.1 23.9c.7.6 1.3 1.3 2 1.9l-.9 1.2H5.8c-1-.9-1.9-2-2.8-3 4.7 0 9.4 0 14.1-.1z" fill="#2b378d"/><path d="M8 27.1h6.9c.7.3 1.4.6 2 1-1.7.7-3.4 1.4-5 2.2-1.3-.4-2.6-.9-4-1.3.1-.7.1-1.3.1-1.9z" fill="#2b3071"/><path class="st20" d="M17 28c-.7-.3-1.4-.6-2-1h3.2c-.4.4-.8.7-1.2 1z"/><path d="M17.1 23.9c-4.7.1-9.4.1-14.1.1-.7-1.3-1.3-2.7-2-4 3.9-.6 7.7-1.2 11.6-1.8.3.1.4.3.4.6l.9 1.2 1 1c.7 1 1.5 1.9 2.2 2.9z" fill="#354193"/><path class="st20" d="M8 27.1v1.8c-.7-.3-1.4-.6-2-.9l-.3-.9H8z"/><path class="st15" d="M14.8 21l-1-1c.1-.3.2-.6.1-1 .3 0 .7-.1 1-.1 0 .7-.1 1.4-.1 2.1z"/><path class="st3" d="M13.9 19c.1.3.1.6-.1 1l-.9-1.2c.4.1.7.2 1 .2z"/></g></svg>